<?xml version="1.0" encoding="UTF-8" standalone="no"?>
<!-- Created with Inkscape (http://www.inkscape.org/) -->

<svg
   width="26.38147mm"
   height="216.72771mm"
   viewBox="0 0 26.38147 216.72771"
   version="1.1"
   id="svg5"
   xml:space="preserve"
   xmlns="http://www.w3.org/2000/svg"
   xmlns:svg="http://www.w3.org/2000/svg"><defs
     id="defs2" /><g
     id="layer1"
     transform="translate(-489.7397,-243.41175)"><g
       id="g12137"
       style="opacity:0.8;fill:#cdaaaa;fill-opacity:1"><path
         id="path12110"
         style="color:#000000;fill:#cdaaaa;fill-opacity:1;stroke-linecap:round;stroke-linejoin:round;-inkscape-stroke:none"
         d="m 504.57278,266.66357 a 0.49999601,0.49999601 0 0 0 -0.50022,0.50023 0.49999601,0.49999601 0 0 0 0.50022,0.50023 c 3.60211,0 6.92916,1.91944 8.73022,5.03896 1.80106,3.11952 1.80105,6.96049 0,10.08001 -1.80106,3.11953 -5.12811,5.04103 -8.73022,5.04103 a 0.49999601,0.49999601 0 0 0 -0.22789,0.062 0.49999899,0.49999899 0 0 0 -0.24133,-0.0625 c -0.58008,0 -1.114,-0.30792 -1.40405,-0.81029 -0.29004,-0.50237 -0.29004,-1.11873 0,-1.62109 0.29005,-0.50237 0.82397,-0.81235 1.40405,-0.81235 a 0.49999899,0.49999899 0 0 0 0.23099,-0.0568 0.49999699,0.49999699 0 0 0 0.23823,0.0625 c 2.4439,0 4.70586,-1.30501 5.92781,-3.42149 1.22195,-2.11648 1.22195,-4.72549 0,-6.84196 -1.22195,-2.11648 -3.48391,-3.42202 -5.92781,-3.42202 a 0.49999699,0.49999699 0 0 0 -0.50022,0.50023 0.49999699,0.49999699 0 0 0 0.50022,0.49971 c 2.08824,0 4.01603,1.11384 5.06016,2.9223 1.04412,1.80847 1.04412,4.03304 0,5.84151 -1.04413,1.80847 -2.97192,2.92178 -5.06016,2.92178 a 0.49999699,0.49999699 0 0 0 -0.22789,0.0563 0.49999899,0.49999899 0 0 0 -0.24133,-0.062 c -0.93574,0 -1.80383,0.50168 -2.2717,1.31206 -0.46787,0.81037 -0.46787,1.81117 0,2.62155 0.46787,0.81038 1.33596,1.31051 2.2717,1.31051 a 0.49999899,0.49999899 0 0 0 0.24081,-0.062 0.49999601,0.49999601 0 0 0 0.22841,0.062 c 3.95777,0 7.61639,-2.11372 9.59528,-5.54126 1.97889,-3.42753 1.97889,-7.65242 0,-11.07994 -1.97889,-3.42754 -5.63751,-5.5392 -9.59528,-5.5392 z m 0,2.12907 a 0.499998,0.499998 0 0 0 -0.50022,0.50023 0.499998,0.499998 0 0 0 0.50022,0.49971 c 2.84316,0 5.46897,1.51426 6.89054,3.9765 1.42158,2.46225 1.42158,5.4949 0,7.95714 -1.42157,2.46224 -4.04738,3.9765 -6.89054,3.9765 a 0.499998,0.499998 0 0 0 -0.50022,0.50023 0.499998,0.499998 0 0 0 0.50022,0.49971 c 3.19882,0 6.15826,-1.70596 7.75767,-4.47622 1.59941,-2.77024 1.59941,-6.18682 0,-8.95707 -1.59941,-2.77025 -4.55885,-4.47673 -7.75767,-4.47673 z m 0,4.22248 a 0.49999851,0.49999851 0 0 0 -0.50022,0.50023 0.49999851,0.49999851 0 0 0 0.50022,0.50023 c 1.33237,0 2.56205,0.71113 3.22823,1.865 0.66619,1.15387 0.66619,2.57252 0,3.72639 -0.66618,1.15386 -1.89586,1.86345 -3.22823,1.86345 a 0.49999851,0.49999851 0 0 0 -0.23616,0.062 0.49999851,0.49999851 0 0 0 -0.23306,-0.0584 c -1.68803,0 -3.24979,0.90336 -4.09381,2.36524 -0.84402,1.46187 -0.84402,3.26496 0,4.72684 0.84402,1.46188 2.40578,2.36317 4.09381,2.36316 a 0.49999851,0.49999851 0 0 0 0.50023,-0.50023 0.49999851,0.49999851 0 0 0 -0.50023,-0.49971 c -1.33237,0 -2.56256,-0.70958 -3.22874,-1.86345 -0.66619,-1.15387 -0.66619,-2.57252 0,-3.72639 0.66618,-1.15387 1.89637,-1.86552 3.22874,-1.86552 a 0.49999851,0.49999851 0 0 0 0.24081,-0.0615 0.49999851,0.49999851 0 0 0 0.22841,0.0579 c 1.68803,10e-6 3.24979,-0.90129 4.09381,-2.36317 0.84402,-1.46188 0.84402,-3.26496 0,-4.72684 -0.84402,-1.46188 -2.40578,-2.36523 -4.09381,-2.36523 z m 0,2.10581 a 0.49999899,0.49999899 0 0 0 -0.23668,0.0599 0.49999601,0.49999601 0 0 0 -0.23254,-0.0584 c -3.95777,0 -7.61691,2.11166 -9.5958,5.5392 -1.97888,3.42753 -1.97888,7.65242 0,11.07995 1.97889,3.42753 5.63803,5.54126 9.5958,5.54126 a 0.49999601,0.49999601 0 0 0 0.50023,-0.50023 0.49999601,0.49999601 0 0 0 -0.50023,-0.49971 c -3.60211,0 -6.92916,-1.92151 -8.73022,-5.04104 -1.80104,-3.11951 -1.80105,-6.96048 0,-10.08 1.80106,-3.11953 5.12811,-5.03949 8.73022,-5.03949 a 0.49999601,0.49999601 0 0 0 0.23616,-0.0594 0.49999899,0.49999899 0 0 0 0.23306,0.0579 c 0.58008,0 1.114,0.30999 1.40405,0.81236 0.29004,0.50236 0.29004,1.11872 0,1.62109 -0.29005,0.50237 -0.82397,0.8108 -1.40405,0.8108 a 0.49999899,0.49999899 0 0 0 -0.22892,0.0553 0.49999699,0.49999699 0 0 0 -0.2403,-0.0615 c -2.4439,0 -4.70585,1.30553 -5.9278,3.42201 -1.22195,2.11648 -1.22195,4.72497 0,6.84144 1.22195,2.11649 3.4839,3.42202 5.9278,3.42202 a 0.49999699,0.49999699 0 0 0 0.50023,-0.49971 0.49999699,0.49999699 0 0 0 -0.50023,-0.50023 c -2.08824,0 -4.01654,-1.11332 -5.06067,-2.92179 -1.04412,-1.80846 -1.04412,-4.03355 0,-5.84202 1.04413,-1.80847 2.97243,-2.92178 5.06067,-2.92178 a 0.49999699,0.49999699 0 0 0 0.22996,-0.0558 0.49999899,0.49999899 0 0 0 0.23926,0.062 c 0.93574,0 1.80331,-0.50014 2.27118,-1.31052 0.46788,-0.81037 0.46788,-1.81066 0,-2.62102 -0.46787,-0.81038 -1.33544,-1.31259 -2.27118,-1.31259 z m -0.46922,2.13062 c -3.19882,0 -6.15826,1.70649 -7.75767,4.47673 -1.5994,2.77026 -1.5994,6.18631 0,8.95656 1.59941,2.77026 4.55885,4.47673 7.75767,4.47673 a 0.499998,0.499998 0 0 0 0.50023,-0.49971 0.499998,0.499998 0 0 0 -0.50023,-0.50023 c -2.84316,0 -5.46897,-1.51425 -6.89053,-3.9765 -1.42158,-2.46224 -1.42158,-5.49489 0,-7.95714 1.42156,-2.46223 4.04737,-3.9765 6.89053,-3.9765 a 0.499998,0.499998 0 0 0 0.50023,-0.50023 0.499998,0.499998 0 0 0 -0.50023,-0.49971 z" /><path
         id="path12112"
         style="color:#000000;fill:#cdaaaa;fill-opacity:1;stroke-linecap:round;stroke-linejoin:round;-inkscape-stroke:none"
         d="m 504.10356,289.9288 a 0.49999601,0.49999601 0 0 0 -0.50022,0.50023 0.49999601,0.49999601 0 0 0 0.50022,0.50023 c 3.60211,0 6.92916,1.91944 8.73022,5.03896 1.80106,3.11952 1.80105,6.96049 0,10.08001 -1.80106,3.11953 -5.12811,5.04103 -8.73022,5.04103 a 0.49999601,0.49999601 0 0 0 -0.22789,0.062 0.49999899,0.49999899 0 0 0 -0.24133,-0.0625 c -0.58008,0 -1.114,-0.30792 -1.40405,-0.81029 -0.29004,-0.50237 -0.29004,-1.11873 0,-1.62109 0.29005,-0.50237 0.82397,-0.81235 1.40405,-0.81235 a 0.49999899,0.49999899 0 0 0 0.23099,-0.0568 0.49999699,0.49999699 0 0 0 0.23823,0.0625 c 2.4439,0 4.70586,-1.30501 5.92781,-3.42149 1.22195,-2.11648 1.22195,-4.72549 0,-6.84196 -1.22195,-2.11648 -3.48391,-3.42202 -5.92781,-3.42202 a 0.49999699,0.49999699 0 0 0 -0.50022,0.50023 0.49999699,0.49999699 0 0 0 0.50022,0.49971 c 2.08824,0 4.01603,1.11384 5.06016,2.9223 1.04412,1.80847 1.04412,4.03304 0,5.84151 -1.04413,1.80847 -2.97192,2.92178 -5.06016,2.92178 a 0.49999699,0.49999699 0 0 0 -0.22789,0.0563 0.49999899,0.49999899 0 0 0 -0.24133,-0.062 c -0.93574,0 -1.80383,0.50168 -2.2717,1.31206 -0.46787,0.81037 -0.46787,1.81117 0,2.62155 0.46787,0.81038 1.33596,1.31051 2.2717,1.31051 a 0.49999899,0.49999899 0 0 0 0.24081,-0.062 0.49999601,0.49999601 0 0 0 0.22841,0.062 c 3.95777,0 7.61639,-2.11372 9.59528,-5.54126 1.97889,-3.42753 1.97889,-7.65242 0,-11.07994 -1.97889,-3.42754 -5.63751,-5.5392 -9.59528,-5.5392 z m 0,2.12907 a 0.499998,0.499998 0 0 0 -0.50022,0.50023 0.499998,0.499998 0 0 0 0.50022,0.49971 c 2.84316,0 5.46897,1.51426 6.89054,3.9765 1.42158,2.46225 1.42158,5.4949 0,7.95714 -1.42157,2.46224 -4.04738,3.9765 -6.89054,3.9765 a 0.499998,0.499998 0 0 0 -0.50022,0.50023 0.499998,0.499998 0 0 0 0.50022,0.49971 c 3.19882,0 6.15826,-1.70596 7.75767,-4.47622 1.59941,-2.77024 1.59941,-6.18682 0,-8.95707 -1.59941,-2.77025 -4.55885,-4.47673 -7.75767,-4.47673 z m 0,4.22248 a 0.49999851,0.49999851 0 0 0 -0.50022,0.50023 0.49999851,0.49999851 0 0 0 0.50022,0.50023 c 1.33237,0 2.56205,0.71113 3.22823,1.865 0.66619,1.15387 0.66619,2.57252 0,3.72639 -0.66618,1.15386 -1.89586,1.86345 -3.22823,1.86345 a 0.49999851,0.49999851 0 0 0 -0.23616,0.062 0.49999851,0.49999851 0 0 0 -0.23306,-0.0584 c -1.68803,0 -3.24979,0.90336 -4.09381,2.36524 -0.84402,1.46187 -0.84402,3.26496 0,4.72684 0.84402,1.46188 2.40578,2.36317 4.09381,2.36316 a 0.49999851,0.49999851 0 0 0 0.50023,-0.50023 0.49999851,0.49999851 0 0 0 -0.50023,-0.49971 c -1.33237,0 -2.56256,-0.70958 -3.22874,-1.86345 -0.66619,-1.15387 -0.66619,-2.57252 0,-3.72639 0.66618,-1.15387 1.89637,-1.86552 3.22874,-1.86552 a 0.49999851,0.49999851 0 0 0 0.24081,-0.0615 0.49999851,0.49999851 0 0 0 0.22841,0.0579 c 1.68803,10e-6 3.24979,-0.90129 4.09381,-2.36317 0.84402,-1.46188 0.84402,-3.26496 0,-4.72684 -0.84402,-1.46188 -2.40578,-2.36523 -4.09381,-2.36523 z m 0,2.10581 a 0.49999899,0.49999899 0 0 0 -0.23668,0.0599 0.49999601,0.49999601 0 0 0 -0.23254,-0.0584 c -3.95777,0 -7.61691,2.11166 -9.5958,5.5392 -1.97888,3.42753 -1.97888,7.65242 0,11.07995 1.97889,3.42753 5.63803,5.54126 9.5958,5.54126 a 0.49999601,0.49999601 0 0 0 0.50023,-0.50023 0.49999601,0.49999601 0 0 0 -0.50023,-0.49971 c -3.60211,0 -6.92916,-1.92151 -8.73022,-5.04104 -1.80104,-3.11951 -1.80105,-6.96048 0,-10.08 1.80106,-3.11953 5.12811,-5.03949 8.73022,-5.03949 a 0.49999601,0.49999601 0 0 0 0.23616,-0.0594 0.49999899,0.49999899 0 0 0 0.23306,0.0579 c 0.58008,0 1.114,0.30999 1.40405,0.81236 0.29004,0.50236 0.29004,1.11872 0,1.62109 -0.29005,0.50237 -0.82397,0.8108 -1.40405,0.8108 a 0.49999899,0.49999899 0 0 0 -0.22892,0.0553 0.49999699,0.49999699 0 0 0 -0.2403,-0.0615 c -2.4439,0 -4.70585,1.30553 -5.9278,3.42201 -1.22195,2.11648 -1.22195,4.72497 0,6.84144 1.22195,2.11649 3.4839,3.42202 5.9278,3.42202 a 0.49999699,0.49999699 0 0 0 0.50023,-0.49971 0.49999699,0.49999699 0 0 0 -0.50023,-0.50023 c -2.08824,0 -4.01654,-1.11332 -5.06067,-2.92179 -1.04412,-1.80846 -1.04412,-4.03355 0,-5.84202 1.04413,-1.80847 2.97243,-2.92178 5.06067,-2.92178 a 0.49999699,0.49999699 0 0 0 0.22996,-0.0558 0.49999899,0.49999899 0 0 0 0.23926,0.062 c 0.93574,0 1.80331,-0.50014 2.27118,-1.31052 0.46788,-0.81037 0.46788,-1.81066 0,-2.62102 -0.46787,-0.81038 -1.33544,-1.31259 -2.27118,-1.31259 z m -0.46922,2.13062 c -3.19882,0 -6.15826,1.70649 -7.75767,4.47673 -1.5994,2.77026 -1.5994,6.18631 0,8.95656 1.59941,2.77026 4.55885,4.47673 7.75767,4.47673 a 0.499998,0.499998 0 0 0 0.50023,-0.49971 0.499998,0.499998 0 0 0 -0.50023,-0.50023 c -2.84316,0 -5.46897,-1.51425 -6.89053,-3.9765 -1.42158,-2.46224 -1.42158,-5.49489 0,-7.95714 1.42156,-2.46223 4.04737,-3.9765 6.89053,-3.9765 a 0.499998,0.499998 0 0 0 0.50023,-0.50023 0.499998,0.499998 0 0 0 -0.50023,-0.49971 z" /><path
         id="path12114"
         style="color:#000000;fill:#cdaaaa;fill-opacity:1;stroke-linecap:round;stroke-linejoin:round;-inkscape-stroke:none"
         d="m 503.63434,313.19403 a 0.49999601,0.49999601 0 0 0 -0.50022,0.50023 0.49999601,0.49999601 0 0 0 0.50022,0.50023 c 3.60211,0 6.92916,1.91944 8.73022,5.03896 1.80106,3.11952 1.80105,6.96049 0,10.08001 -1.80106,3.11953 -5.12811,5.04103 -8.73022,5.04103 a 0.49999601,0.49999601 0 0 0 -0.22789,0.062 0.49999899,0.49999899 0 0 0 -0.24133,-0.0625 c -0.58008,0 -1.114,-0.30792 -1.40405,-0.81029 -0.29004,-0.50237 -0.29004,-1.11873 0,-1.62109 0.29005,-0.50237 0.82397,-0.81235 1.40405,-0.81235 a 0.49999899,0.49999899 0 0 0 0.23099,-0.0568 0.49999699,0.49999699 0 0 0 0.23823,0.0625 c 2.4439,0 4.70586,-1.30501 5.92781,-3.42149 1.22195,-2.11648 1.22195,-4.72549 0,-6.84196 -1.22195,-2.11648 -3.48391,-3.42202 -5.92781,-3.42202 a 0.49999699,0.49999699 0 0 0 -0.50022,0.50023 0.49999699,0.49999699 0 0 0 0.50022,0.49971 c 2.08824,0 4.01603,1.11384 5.06016,2.9223 1.04412,1.80847 1.04412,4.03304 0,5.84151 -1.04413,1.80847 -2.97192,2.92178 -5.06016,2.92178 a 0.49999699,0.49999699 0 0 0 -0.22789,0.0563 0.49999899,0.49999899 0 0 0 -0.24133,-0.062 c -0.93574,0 -1.80383,0.50168 -2.2717,1.31206 -0.46787,0.81037 -0.46787,1.81117 0,2.62155 0.46787,0.81038 1.33596,1.31051 2.2717,1.31051 a 0.49999899,0.49999899 0 0 0 0.24081,-0.062 0.49999601,0.49999601 0 0 0 0.22841,0.062 c 3.95777,0 7.61639,-2.11372 9.59528,-5.54126 1.97889,-3.42753 1.97889,-7.65242 0,-11.07994 -1.97889,-3.42754 -5.63751,-5.5392 -9.59528,-5.5392 z m 0,2.12907 a 0.499998,0.499998 0 0 0 -0.50022,0.50023 0.499998,0.499998 0 0 0 0.50022,0.49971 c 2.84316,0 5.46897,1.51426 6.89054,3.9765 1.42158,2.46225 1.42158,5.4949 0,7.95714 -1.42157,2.46224 -4.04738,3.9765 -6.89054,3.9765 a 0.499998,0.499998 0 0 0 -0.50022,0.50023 0.499998,0.499998 0 0 0 0.50022,0.49971 c 3.19882,0 6.15826,-1.70596 7.75767,-4.47622 1.59941,-2.77024 1.59941,-6.18682 0,-8.95707 -1.59941,-2.77025 -4.55885,-4.47673 -7.75767,-4.47673 z m 0,4.22248 a 0.49999851,0.49999851 0 0 0 -0.50022,0.50023 0.49999851,0.49999851 0 0 0 0.50022,0.50023 c 1.33237,0 2.56205,0.71113 3.22823,1.865 0.66619,1.15387 0.66619,2.57252 0,3.72639 -0.66618,1.15386 -1.89586,1.86345 -3.22823,1.86345 a 0.49999851,0.49999851 0 0 0 -0.23616,0.062 0.49999851,0.49999851 0 0 0 -0.23306,-0.0584 c -1.68803,0 -3.24979,0.90336 -4.09381,2.36524 -0.84402,1.46187 -0.84402,3.26496 0,4.72684 0.84402,1.46188 2.40578,2.36317 4.09381,2.36316 a 0.49999851,0.49999851 0 0 0 0.50023,-0.50023 0.49999851,0.49999851 0 0 0 -0.50023,-0.49971 c -1.33237,0 -2.56256,-0.70958 -3.22874,-1.86345 -0.66619,-1.15387 -0.66619,-2.57252 0,-3.72639 0.66618,-1.15387 1.89637,-1.86552 3.22874,-1.86552 a 0.49999851,0.49999851 0 0 0 0.24081,-0.0615 0.49999851,0.49999851 0 0 0 0.22841,0.0579 c 1.68803,1e-5 3.24979,-0.90129 4.09381,-2.36317 0.84402,-1.46188 0.84402,-3.26496 0,-4.72684 -0.84402,-1.46188 -2.40578,-2.36523 -4.09381,-2.36523 z m 0,2.10581 a 0.49999899,0.49999899 0 0 0 -0.23668,0.0599 0.49999601,0.49999601 0 0 0 -0.23254,-0.0584 c -3.95777,0 -7.61691,2.11166 -9.5958,5.5392 -1.97888,3.42753 -1.97888,7.65242 0,11.07995 1.97889,3.42753 5.63803,5.54126 9.5958,5.54126 a 0.49999601,0.49999601 0 0 0 0.50023,-0.50023 0.49999601,0.49999601 0 0 0 -0.50023,-0.49971 c -3.60211,0 -6.92916,-1.92151 -8.73022,-5.04104 -1.80104,-3.11951 -1.80105,-6.96048 0,-10.08 1.80106,-3.11953 5.12811,-5.03949 8.73022,-5.03949 a 0.49999601,0.49999601 0 0 0 0.23616,-0.0594 0.49999899,0.49999899 0 0 0 0.23306,0.0579 c 0.58008,0 1.114,0.30999 1.40405,0.81236 0.29004,0.50236 0.29004,1.11872 0,1.62109 -0.29005,0.50237 -0.82397,0.8108 -1.40405,0.8108 a 0.49999899,0.49999899 0 0 0 -0.22892,0.0553 0.49999699,0.49999699 0 0 0 -0.2403,-0.0615 c -2.4439,0 -4.70585,1.30553 -5.9278,3.42201 -1.22195,2.11648 -1.22195,4.72497 0,6.84144 1.22195,2.11649 3.4839,3.42202 5.9278,3.42202 a 0.49999699,0.49999699 0 0 0 0.50023,-0.49971 0.49999699,0.49999699 0 0 0 -0.50023,-0.50023 c -2.08824,0 -4.01654,-1.11332 -5.06067,-2.92179 -1.04412,-1.80846 -1.04412,-4.03355 0,-5.84202 1.04413,-1.80847 2.97243,-2.92178 5.06067,-2.92178 a 0.49999699,0.49999699 0 0 0 0.22996,-0.0558 0.49999899,0.49999899 0 0 0 0.23926,0.062 c 0.93574,0 1.80331,-0.50014 2.27118,-1.31052 0.46788,-0.81037 0.46788,-1.81066 0,-2.62102 -0.46787,-0.81038 -1.33544,-1.31259 -2.27118,-1.31259 z m -0.46922,2.13062 c -3.19882,0 -6.15826,1.70649 -7.75767,4.47673 -1.5994,2.77026 -1.5994,6.18631 0,8.95656 1.59941,2.77026 4.55885,4.47673 7.75767,4.47673 a 0.499998,0.499998 0 0 0 0.50023,-0.49971 0.499998,0.499998 0 0 0 -0.50023,-0.50023 c -2.84316,0 -5.46897,-1.51425 -6.89053,-3.9765 -1.42158,-2.46224 -1.42158,-5.49489 0,-7.95714 1.42156,-2.46223 4.04737,-3.9765 6.89053,-3.9765 a 0.499998,0.499998 0 0 0 0.50023,-0.50023 0.499998,0.499998 0 0 0 -0.50023,-0.49971 z" /><path
         id="path12116"
         style="color:#000000;fill:#cdaaaa;fill-opacity:1;stroke-linecap:round;stroke-linejoin:round;-inkscape-stroke:none"
         d="m 503.16534,336.45926 a 0.49999601,0.49999601 0 0 0 -0.50022,0.50023 0.49999601,0.49999601 0 0 0 0.50022,0.50023 c 3.60211,0 6.92916,1.91944 8.73022,5.03896 1.80106,3.11952 1.80105,6.96049 0,10.08001 -1.80106,3.11953 -5.12811,5.04103 -8.73022,5.04103 a 0.49999601,0.49999601 0 0 0 -0.22789,0.062 0.49999899,0.49999899 0 0 0 -0.24133,-0.0625 c -0.58008,0 -1.114,-0.30792 -1.40405,-0.81029 -0.29004,-0.50237 -0.29004,-1.11873 0,-1.62109 0.29005,-0.50237 0.82397,-0.81235 1.40405,-0.81235 a 0.49999899,0.49999899 0 0 0 0.23099,-0.0568 0.49999699,0.49999699 0 0 0 0.23823,0.0625 c 2.4439,0 4.70586,-1.30501 5.92781,-3.42149 1.22195,-2.11648 1.22195,-4.72549 0,-6.84196 -1.22195,-2.11648 -3.48391,-3.42202 -5.92781,-3.42202 a 0.49999699,0.49999699 0 0 0 -0.50022,0.50023 0.49999699,0.49999699 0 0 0 0.50022,0.49971 c 2.08824,0 4.01603,1.11384 5.06016,2.9223 1.04412,1.80847 1.04412,4.03304 0,5.84151 -1.04413,1.80847 -2.97192,2.92178 -5.06016,2.92178 a 0.49999699,0.49999699 0 0 0 -0.22789,0.0563 0.49999899,0.49999899 0 0 0 -0.24133,-0.062 c -0.93574,0 -1.80383,0.50168 -2.2717,1.31206 -0.46787,0.81037 -0.46787,1.81117 0,2.62155 0.46787,0.81038 1.33596,1.31051 2.2717,1.31051 a 0.49999899,0.49999899 0 0 0 0.24081,-0.062 0.49999601,0.49999601 0 0 0 0.22841,0.062 c 3.95777,0 7.61639,-2.11372 9.59528,-5.54126 1.97889,-3.42753 1.97889,-7.65242 0,-11.07994 -1.97889,-3.42754 -5.63751,-5.5392 -9.59528,-5.5392 z m 0,2.12907 a 0.499998,0.499998 0 0 0 -0.50022,0.50023 0.499998,0.499998 0 0 0 0.50022,0.49971 c 2.84316,0 5.46897,1.51426 6.89054,3.9765 1.42158,2.46225 1.42158,5.4949 0,7.95714 -1.42157,2.46224 -4.04738,3.9765 -6.89054,3.9765 a 0.499998,0.499998 0 0 0 -0.50022,0.50023 0.499998,0.499998 0 0 0 0.50022,0.49971 c 3.19882,0 6.15826,-1.70596 7.75767,-4.47622 1.59941,-2.77024 1.59941,-6.18682 0,-8.95707 -1.59941,-2.77025 -4.55885,-4.47673 -7.75767,-4.47673 z m 0,4.22248 a 0.49999851,0.49999851 0 0 0 -0.50022,0.50023 0.49999851,0.49999851 0 0 0 0.50022,0.50023 c 1.33237,0 2.56205,0.71113 3.22823,1.865 0.66619,1.15387 0.66619,2.57252 0,3.72639 -0.66618,1.15386 -1.89586,1.86345 -3.22823,1.86345 a 0.49999851,0.49999851 0 0 0 -0.23616,0.062 0.49999851,0.49999851 0 0 0 -0.23306,-0.0584 c -1.68803,0 -3.24979,0.90336 -4.09381,2.36524 -0.84402,1.46187 -0.84402,3.26496 0,4.72684 0.84402,1.46188 2.40578,2.36317 4.09381,2.36316 a 0.49999851,0.49999851 0 0 0 0.50023,-0.50023 0.49999851,0.49999851 0 0 0 -0.50023,-0.49971 c -1.33237,0 -2.56256,-0.70958 -3.22874,-1.86345 -0.66619,-1.15387 -0.66619,-2.57252 0,-3.72639 0.66618,-1.15387 1.89637,-1.86552 3.22874,-1.86552 a 0.49999851,0.49999851 0 0 0 0.24081,-0.0615 0.49999851,0.49999851 0 0 0 0.22841,0.0579 c 1.68803,10e-6 3.24979,-0.90129 4.09381,-2.36317 0.84402,-1.46188 0.84402,-3.26496 0,-4.72684 -0.84402,-1.46188 -2.40578,-2.36523 -4.09381,-2.36523 z m 0,2.10581 a 0.49999899,0.49999899 0 0 0 -0.23668,0.0599 0.49999601,0.49999601 0 0 0 -0.23254,-0.0584 c -3.95777,0 -7.61691,2.11166 -9.5958,5.5392 -1.97888,3.42753 -1.97888,7.65242 0,11.07995 1.97889,3.42753 5.63803,5.54126 9.5958,5.54126 a 0.49999601,0.49999601 0 0 0 0.50023,-0.50023 0.49999601,0.49999601 0 0 0 -0.50023,-0.49971 c -3.60211,0 -6.92916,-1.92151 -8.73022,-5.04104 -1.80104,-3.11951 -1.80105,-6.96048 0,-10.08 1.80106,-3.11953 5.12811,-5.03949 8.73022,-5.03949 a 0.49999601,0.49999601 0 0 0 0.23616,-0.0594 0.49999899,0.49999899 0 0 0 0.23306,0.0579 c 0.58008,0 1.114,0.30999 1.40405,0.81236 0.29004,0.50236 0.29004,1.11872 0,1.62109 -0.29005,0.50237 -0.82397,0.8108 -1.40405,0.8108 a 0.49999899,0.49999899 0 0 0 -0.22892,0.0553 0.49999699,0.49999699 0 0 0 -0.2403,-0.0615 c -2.4439,0 -4.70585,1.30553 -5.9278,3.42201 -1.22195,2.11648 -1.22195,4.72497 0,6.84144 1.22195,2.11649 3.4839,3.42202 5.9278,3.42202 a 0.49999699,0.49999699 0 0 0 0.50023,-0.49971 0.49999699,0.49999699 0 0 0 -0.50023,-0.50023 c -2.08824,0 -4.01654,-1.11332 -5.06067,-2.92179 -1.04412,-1.80846 -1.04412,-4.03355 0,-5.84202 1.04413,-1.80847 2.97243,-2.92178 5.06067,-2.92178 a 0.49999699,0.49999699 0 0 0 0.22996,-0.0558 0.49999899,0.49999899 0 0 0 0.23926,0.062 c 0.93574,0 1.80331,-0.50014 2.27118,-1.31052 0.46788,-0.81037 0.46788,-1.81066 0,-2.62102 -0.46787,-0.81038 -1.33544,-1.31259 -2.27118,-1.31259 z m -0.46922,2.13062 c -3.19882,0 -6.15826,1.70649 -7.75767,4.47673 -1.5994,2.77026 -1.5994,6.18631 0,8.95656 1.59941,2.77026 4.55885,4.47673 7.75767,4.47673 a 0.499998,0.499998 0 0 0 0.50023,-0.49971 0.499998,0.499998 0 0 0 -0.50023,-0.50023 c -2.84316,0 -5.46897,-1.51425 -6.89053,-3.9765 -1.42158,-2.46224 -1.42158,-5.49489 0,-7.95714 1.42156,-2.46223 4.04737,-3.9765 6.89053,-3.9765 a 0.499998,0.499998 0 0 0 0.50023,-0.50023 0.499998,0.499998 0 0 0 -0.50023,-0.49971 z" /><path
         id="path12118"
         style="color:#000000;fill:#cdaaaa;fill-opacity:1;stroke-linecap:round;stroke-linejoin:round;-inkscape-stroke:none"
         d="m 502.69634,359.72449 a 0.49999601,0.49999601 0 0 0 -0.50022,0.50023 0.49999601,0.49999601 0 0 0 0.50022,0.50023 c 3.60211,0 6.92916,1.91944 8.73022,5.03896 1.80106,3.11952 1.80105,6.96049 0,10.08001 -1.80106,3.11953 -5.12811,5.04103 -8.73022,5.04103 a 0.49999601,0.49999601 0 0 0 -0.22789,0.062 0.49999899,0.49999899 0 0 0 -0.24133,-0.0625 c -0.58008,0 -1.114,-0.30792 -1.40405,-0.81029 -0.29004,-0.50237 -0.29004,-1.11873 0,-1.62109 0.29005,-0.50237 0.82397,-0.81235 1.40405,-0.81235 a 0.49999899,0.49999899 0 0 0 0.23099,-0.0568 0.49999699,0.49999699 0 0 0 0.23823,0.0625 c 2.4439,0 4.70586,-1.30501 5.92781,-3.42149 1.22195,-2.11648 1.22195,-4.72549 0,-6.84196 -1.22195,-2.11648 -3.48391,-3.42202 -5.92781,-3.42202 a 0.49999699,0.49999699 0 0 0 -0.50022,0.50023 0.49999699,0.49999699 0 0 0 0.50022,0.49971 c 2.08824,0 4.01603,1.11384 5.06016,2.9223 1.04412,1.80847 1.04412,4.03304 0,5.84151 -1.04413,1.80847 -2.97192,2.92178 -5.06016,2.92178 a 0.49999699,0.49999699 0 0 0 -0.22789,0.0563 0.49999899,0.49999899 0 0 0 -0.24133,-0.062 c -0.93574,0 -1.80383,0.50168 -2.2717,1.31206 -0.46787,0.81037 -0.46787,1.81117 0,2.62155 0.46787,0.81038 1.33596,1.31051 2.2717,1.31051 a 0.49999899,0.49999899 0 0 0 0.24081,-0.062 0.49999601,0.49999601 0 0 0 0.22841,0.062 c 3.95777,0 7.61639,-2.11372 9.59528,-5.54126 1.97889,-3.42753 1.97889,-7.65242 0,-11.07994 -1.97889,-3.42754 -5.63751,-5.5392 -9.59528,-5.5392 z m 0,2.12907 a 0.499998,0.499998 0 0 0 -0.50022,0.50023 0.499998,0.499998 0 0 0 0.50022,0.49971 c 2.84316,0 5.46897,1.51426 6.89054,3.9765 1.42158,2.46225 1.42158,5.4949 0,7.95714 -1.42157,2.46224 -4.04738,3.9765 -6.89054,3.9765 a 0.499998,0.499998 0 0 0 -0.50022,0.50023 0.499998,0.499998 0 0 0 0.50022,0.49971 c 3.19882,0 6.15826,-1.70596 7.75767,-4.47622 1.59941,-2.77024 1.59941,-6.18682 0,-8.95707 -1.59941,-2.77025 -4.55885,-4.47673 -7.75767,-4.47673 z m 0,4.22248 a 0.49999851,0.49999851 0 0 0 -0.50022,0.50023 0.49999851,0.49999851 0 0 0 0.50022,0.50023 c 1.33237,0 2.56205,0.71113 3.22823,1.865 0.66619,1.15387 0.66619,2.57252 0,3.72639 -0.66618,1.15386 -1.89586,1.86345 -3.22823,1.86345 a 0.49999851,0.49999851 0 0 0 -0.23616,0.062 0.49999851,0.49999851 0 0 0 -0.23306,-0.0584 c -1.68803,0 -3.24979,0.90336 -4.09381,2.36524 -0.84402,1.46187 -0.84402,3.26496 0,4.72684 0.84402,1.46188 2.40578,2.36317 4.09381,2.36316 a 0.49999851,0.49999851 0 0 0 0.50023,-0.50023 0.49999851,0.49999851 0 0 0 -0.50023,-0.49971 c -1.33237,0 -2.56256,-0.70958 -3.22874,-1.86345 -0.66619,-1.15387 -0.66619,-2.57252 0,-3.72639 0.66618,-1.15387 1.89637,-1.86552 3.22874,-1.86552 a 0.49999851,0.49999851 0 0 0 0.24081,-0.0615 0.49999851,0.49999851 0 0 0 0.22841,0.0579 c 1.68803,1e-5 3.24979,-0.90129 4.09381,-2.36317 0.84402,-1.46188 0.84402,-3.26496 0,-4.72684 -0.84402,-1.46188 -2.40578,-2.36523 -4.09381,-2.36523 z m 0,2.10581 a 0.49999899,0.49999899 0 0 0 -0.23668,0.0599 0.49999601,0.49999601 0 0 0 -0.23254,-0.0584 c -3.95777,0 -7.61691,2.11166 -9.5958,5.5392 -1.97888,3.42753 -1.97888,7.65242 0,11.07995 1.97889,3.42753 5.63803,5.54126 9.5958,5.54126 a 0.49999601,0.49999601 0 0 0 0.50023,-0.50023 0.49999601,0.49999601 0 0 0 -0.50023,-0.49971 c -3.60211,0 -6.92916,-1.92151 -8.73022,-5.04104 -1.80104,-3.11951 -1.80105,-6.96048 0,-10.08 1.80106,-3.11953 5.12811,-5.03949 8.73022,-5.03949 a 0.49999601,0.49999601 0 0 0 0.23616,-0.0594 0.49999899,0.49999899 0 0 0 0.23306,0.0579 c 0.58008,0 1.114,0.30999 1.40405,0.81236 0.29004,0.50236 0.29004,1.11872 0,1.62109 -0.29005,0.50237 -0.82397,0.8108 -1.40405,0.8108 a 0.49999899,0.49999899 0 0 0 -0.22892,0.0553 0.49999699,0.49999699 0 0 0 -0.2403,-0.0615 c -2.4439,0 -4.70585,1.30553 -5.9278,3.42201 -1.22195,2.11648 -1.22195,4.72497 0,6.84144 1.22195,2.11649 3.4839,3.42202 5.9278,3.42202 a 0.49999699,0.49999699 0 0 0 0.50023,-0.49971 0.49999699,0.49999699 0 0 0 -0.50023,-0.50023 c -2.08824,0 -4.01654,-1.11332 -5.06067,-2.92179 -1.04412,-1.80846 -1.04412,-4.03355 0,-5.84202 1.04413,-1.80847 2.97243,-2.92178 5.06067,-2.92178 a 0.49999699,0.49999699 0 0 0 0.22996,-0.0558 0.49999899,0.49999899 0 0 0 0.23926,0.062 c 0.93574,0 1.80331,-0.50014 2.27118,-1.31052 0.46788,-0.81037 0.46788,-1.81066 0,-2.62102 -0.46787,-0.81038 -1.33544,-1.31259 -2.27118,-1.31259 z m -0.46922,2.13062 c -3.19882,0 -6.15826,1.70649 -7.75767,4.47673 -1.5994,2.77026 -1.5994,6.18631 0,8.95656 1.59941,2.77026 4.55885,4.47673 7.75767,4.47673 a 0.499998,0.499998 0 0 0 0.50023,-0.49971 0.499998,0.499998 0 0 0 -0.50023,-0.50023 c -2.84316,0 -5.46897,-1.51425 -6.89053,-3.9765 -1.42158,-2.46224 -1.42158,-5.49489 0,-7.95714 1.42156,-2.46223 4.04737,-3.9765 6.89053,-3.9765 a 0.499998,0.499998 0 0 0 0.50023,-0.50023 0.499998,0.499998 0 0 0 -0.50023,-0.49971 z" /><path
         id="path12120"
         style="color:#000000;fill:#cdaaaa;fill-opacity:1;stroke-linecap:round;stroke-linejoin:round;-inkscape-stroke:none"
         d="m 502.22712,382.98972 a 0.49999601,0.49999601 0 0 0 -0.50022,0.50023 0.49999601,0.49999601 0 0 0 0.50022,0.50023 c 3.60211,0 6.92916,1.91944 8.73022,5.03896 1.80106,3.11952 1.80105,6.96049 0,10.08001 -1.80106,3.11953 -5.12811,5.04103 -8.73022,5.04103 a 0.49999601,0.49999601 0 0 0 -0.22789,0.062 0.49999899,0.49999899 0 0 0 -0.24133,-0.0625 c -0.58008,0 -1.114,-0.30792 -1.40405,-0.81029 -0.29004,-0.50237 -0.29004,-1.11873 0,-1.62109 0.29005,-0.50237 0.82397,-0.81235 1.40405,-0.81235 a 0.49999899,0.49999899 0 0 0 0.23099,-0.0568 0.49999699,0.49999699 0 0 0 0.23823,0.0625 c 2.4439,0 4.70586,-1.30501 5.92781,-3.42149 1.22195,-2.11648 1.22195,-4.72549 0,-6.84196 -1.22195,-2.11648 -3.48391,-3.42202 -5.92781,-3.42202 a 0.49999699,0.49999699 0 0 0 -0.50022,0.50023 0.49999699,0.49999699 0 0 0 0.50022,0.49971 c 2.08824,0 4.01603,1.11384 5.06016,2.9223 1.04412,1.80847 1.04412,4.03304 0,5.84151 -1.04413,1.80847 -2.97192,2.92178 -5.06016,2.92178 a 0.49999699,0.49999699 0 0 0 -0.22789,0.0563 0.49999899,0.49999899 0 0 0 -0.24133,-0.062 c -0.93574,0 -1.80383,0.50168 -2.2717,1.31206 -0.46787,0.81037 -0.46787,1.81117 0,2.62155 0.46787,0.81038 1.33596,1.31051 2.2717,1.31051 a 0.49999899,0.49999899 0 0 0 0.24081,-0.062 0.49999601,0.49999601 0 0 0 0.22841,0.062 c 3.95777,0 7.61639,-2.11372 9.59528,-5.54126 1.97889,-3.42753 1.97889,-7.65242 0,-11.07994 -1.97889,-3.42754 -5.63751,-5.5392 -9.59528,-5.5392 z m 0,2.12907 a 0.499998,0.499998 0 0 0 -0.50022,0.50023 0.499998,0.499998 0 0 0 0.50022,0.49971 c 2.84316,0 5.46897,1.51426 6.89054,3.9765 1.42158,2.46225 1.42158,5.4949 0,7.95714 -1.42157,2.46224 -4.04738,3.9765 -6.89054,3.9765 a 0.499998,0.499998 0 0 0 -0.50022,0.50023 0.499998,0.499998 0 0 0 0.50022,0.49971 c 3.19882,0 6.15826,-1.70596 7.75767,-4.47622 1.59941,-2.77024 1.59941,-6.18682 0,-8.95707 -1.59941,-2.77025 -4.55885,-4.47673 -7.75767,-4.47673 z m 0,4.22248 a 0.49999851,0.49999851 0 0 0 -0.50022,0.50023 0.49999851,0.49999851 0 0 0 0.50022,0.50023 c 1.33237,0 2.56205,0.71113 3.22823,1.865 0.66619,1.15387 0.66619,2.57252 0,3.72639 -0.66618,1.15386 -1.89586,1.86345 -3.22823,1.86345 a 0.49999851,0.49999851 0 0 0 -0.23616,0.062 0.49999851,0.49999851 0 0 0 -0.23306,-0.0584 c -1.68803,0 -3.24979,0.90336 -4.09381,2.36524 -0.84402,1.46187 -0.84402,3.26496 0,4.72684 0.84402,1.46188 2.40578,2.36317 4.09381,2.36316 a 0.49999851,0.49999851 0 0 0 0.50023,-0.50023 0.49999851,0.49999851 0 0 0 -0.50023,-0.49971 c -1.33237,0 -2.56256,-0.70958 -3.22874,-1.86345 -0.66619,-1.15387 -0.66619,-2.57252 0,-3.72639 0.66618,-1.15387 1.89637,-1.86552 3.22874,-1.86552 a 0.49999851,0.49999851 0 0 0 0.24081,-0.0615 0.49999851,0.49999851 0 0 0 0.22841,0.0579 c 1.68803,10e-6 3.24979,-0.90129 4.09381,-2.36317 0.84402,-1.46188 0.84402,-3.26496 0,-4.72684 -0.84402,-1.46188 -2.40578,-2.36523 -4.09381,-2.36523 z m 0,2.10581 a 0.49999899,0.49999899 0 0 0 -0.23668,0.0599 0.49999601,0.49999601 0 0 0 -0.23254,-0.0584 c -3.95777,0 -7.61691,2.11166 -9.5958,5.5392 -1.97888,3.42753 -1.97888,7.65242 0,11.07995 1.97889,3.42753 5.63803,5.54126 9.5958,5.54126 a 0.49999601,0.49999601 0 0 0 0.50023,-0.50023 0.49999601,0.49999601 0 0 0 -0.50023,-0.49971 c -3.60211,0 -6.92916,-1.92151 -8.73022,-5.04104 -1.80104,-3.11951 -1.80105,-6.96048 0,-10.08 1.80106,-3.11953 5.12811,-5.03949 8.73022,-5.03949 a 0.49999601,0.49999601 0 0 0 0.23616,-0.0594 0.49999899,0.49999899 0 0 0 0.23306,0.0579 c 0.58008,0 1.114,0.30999 1.40405,0.81236 0.29004,0.50236 0.29004,1.11872 0,1.62109 -0.29005,0.50237 -0.82397,0.8108 -1.40405,0.8108 a 0.49999899,0.49999899 0 0 0 -0.22892,0.0553 0.49999699,0.49999699 0 0 0 -0.2403,-0.0615 c -2.4439,0 -4.70585,1.30553 -5.9278,3.42201 -1.22195,2.11648 -1.22195,4.72497 0,6.84144 1.22195,2.11649 3.4839,3.42202 5.9278,3.42202 a 0.49999699,0.49999699 0 0 0 0.50023,-0.49971 0.49999699,0.49999699 0 0 0 -0.50023,-0.50023 c -2.08824,0 -4.01654,-1.11332 -5.06067,-2.92179 -1.04412,-1.80846 -1.04412,-4.03355 0,-5.84202 1.04413,-1.80847 2.97243,-2.92178 5.06067,-2.92178 a 0.49999699,0.49999699 0 0 0 0.22996,-0.0558 0.49999899,0.49999899 0 0 0 0.23926,0.062 c 0.93574,0 1.80331,-0.50014 2.27118,-1.31052 0.46788,-0.81037 0.46788,-1.81066 0,-2.62102 -0.46787,-0.81038 -1.33544,-1.31259 -2.27118,-1.31259 z m -0.46922,2.13062 c -3.19882,0 -6.15826,1.70649 -7.75767,4.47673 -1.5994,2.77026 -1.5994,6.18631 0,8.95656 1.59941,2.77026 4.55885,4.47673 7.75767,4.47673 a 0.499998,0.499998 0 0 0 0.50023,-0.49971 0.499998,0.499998 0 0 0 -0.50023,-0.50023 c -2.84316,0 -5.46897,-1.51425 -6.89053,-3.9765 -1.42158,-2.46224 -1.42158,-5.49489 0,-7.95714 1.42156,-2.46223 4.04737,-3.9765 6.89053,-3.9765 a 0.499998,0.499998 0 0 0 0.50023,-0.50023 0.499998,0.499998 0 0 0 -0.50023,-0.49971 z" /><path
         id="path12122"
         style="color:#000000;fill:#cdaaaa;fill-opacity:1;stroke-linecap:round;stroke-linejoin:round;-inkscape-stroke:none"
         d="m 501.7579,406.25495 a 0.49999601,0.49999601 0 0 0 -0.50022,0.50023 0.49999601,0.49999601 0 0 0 0.50022,0.50023 c 3.60211,0 6.92916,1.91944 8.73022,5.03896 1.80106,3.11952 1.80105,6.96049 0,10.08001 -1.80106,3.11953 -5.12811,5.04103 -8.73022,5.04103 a 0.49999601,0.49999601 0 0 0 -0.22789,0.062 0.49999899,0.49999899 0 0 0 -0.24133,-0.0625 c -0.58008,0 -1.114,-0.30792 -1.40405,-0.81029 -0.29004,-0.50237 -0.29004,-1.11873 0,-1.62109 0.29005,-0.50237 0.82397,-0.81235 1.40405,-0.81235 a 0.49999899,0.49999899 0 0 0 0.23099,-0.0568 0.49999699,0.49999699 0 0 0 0.23823,0.0625 c 2.4439,0 4.70586,-1.30501 5.92781,-3.42149 1.22195,-2.11648 1.22195,-4.72549 0,-6.84196 -1.22195,-2.11648 -3.48391,-3.42202 -5.92781,-3.42202 a 0.49999699,0.49999699 0 0 0 -0.50022,0.50023 0.49999699,0.49999699 0 0 0 0.50022,0.49971 c 2.08824,0 4.01603,1.11384 5.06016,2.9223 1.04412,1.80847 1.04412,4.03304 0,5.84151 -1.04413,1.80847 -2.97192,2.92178 -5.06016,2.92178 a 0.49999699,0.49999699 0 0 0 -0.22789,0.0563 0.49999899,0.49999899 0 0 0 -0.24133,-0.062 c -0.93574,0 -1.80383,0.50168 -2.2717,1.31206 -0.46787,0.81037 -0.46787,1.81117 0,2.62155 0.46787,0.81038 1.33596,1.31051 2.2717,1.31051 a 0.49999899,0.49999899 0 0 0 0.24081,-0.062 0.49999601,0.49999601 0 0 0 0.22841,0.062 c 3.95777,0 7.61639,-2.11372 9.59528,-5.54126 1.97889,-3.42753 1.97889,-7.65242 0,-11.07994 -1.97889,-3.42754 -5.63751,-5.5392 -9.59528,-5.5392 z m 0,2.12907 a 0.499998,0.499998 0 0 0 -0.50022,0.50023 0.499998,0.499998 0 0 0 0.50022,0.49971 c 2.84316,0 5.46897,1.51426 6.89054,3.9765 1.42158,2.46225 1.42158,5.4949 0,7.95714 -1.42157,2.46224 -4.04738,3.9765 -6.89054,3.9765 a 0.499998,0.499998 0 0 0 -0.50022,0.50023 0.499998,0.499998 0 0 0 0.50022,0.49971 c 3.19882,0 6.15826,-1.70596 7.75767,-4.47622 1.59941,-2.77024 1.59941,-6.18682 0,-8.95707 -1.59941,-2.77025 -4.55885,-4.47673 -7.75767,-4.47673 z m 0,4.22248 a 0.49999851,0.49999851 0 0 0 -0.50022,0.50023 0.49999851,0.49999851 0 0 0 0.50022,0.50023 c 1.33237,0 2.56205,0.71113 3.22823,1.865 0.66619,1.15387 0.66619,2.57252 0,3.72639 -0.66618,1.15386 -1.89586,1.86345 -3.22823,1.86345 a 0.49999851,0.49999851 0 0 0 -0.23616,0.062 0.49999851,0.49999851 0 0 0 -0.23306,-0.0584 c -1.68803,0 -3.24979,0.90336 -4.09381,2.36524 -0.84402,1.46187 -0.84402,3.26496 0,4.72684 0.84402,1.46188 2.40578,2.36317 4.09381,2.36316 a 0.49999851,0.49999851 0 0 0 0.50023,-0.50023 0.49999851,0.49999851 0 0 0 -0.50023,-0.49971 c -1.33237,0 -2.56256,-0.70958 -3.22874,-1.86345 -0.66619,-1.15387 -0.66619,-2.57252 0,-3.72639 0.66618,-1.15387 1.89637,-1.86552 3.22874,-1.86552 a 0.49999851,0.49999851 0 0 0 0.24081,-0.0615 0.49999851,0.49999851 0 0 0 0.22841,0.0579 c 1.68803,1e-5 3.24979,-0.90129 4.09381,-2.36317 0.84402,-1.46188 0.84402,-3.26496 0,-4.72684 -0.84402,-1.46188 -2.40578,-2.36523 -4.09381,-2.36523 z m 0,2.10581 a 0.49999899,0.49999899 0 0 0 -0.23668,0.0599 0.49999601,0.49999601 0 0 0 -0.23254,-0.0584 c -3.95777,0 -7.61691,2.11166 -9.5958,5.5392 -1.97888,3.42753 -1.97888,7.65242 0,11.07995 1.97889,3.42753 5.63803,5.54126 9.5958,5.54126 a 0.49999601,0.49999601 0 0 0 0.50023,-0.50023 0.49999601,0.49999601 0 0 0 -0.50023,-0.49971 c -3.60211,0 -6.92916,-1.92151 -8.73022,-5.04104 -1.80104,-3.11951 -1.80105,-6.96048 0,-10.08 1.80106,-3.11953 5.12811,-5.03949 8.73022,-5.03949 a 0.49999601,0.49999601 0 0 0 0.23616,-0.0594 0.49999899,0.49999899 0 0 0 0.23306,0.0579 c 0.58008,0 1.114,0.30999 1.40405,0.81236 0.29004,0.50236 0.29004,1.11872 0,1.62109 -0.29005,0.50237 -0.82397,0.8108 -1.40405,0.8108 a 0.49999899,0.49999899 0 0 0 -0.22892,0.0553 0.49999699,0.49999699 0 0 0 -0.2403,-0.0615 c -2.4439,0 -4.70585,1.30553 -5.9278,3.42201 -1.22195,2.11648 -1.22195,4.72497 0,6.84144 1.22195,2.11649 3.4839,3.42202 5.9278,3.42202 a 0.49999699,0.49999699 0 0 0 0.50023,-0.49971 0.49999699,0.49999699 0 0 0 -0.50023,-0.50023 c -2.08824,0 -4.01654,-1.11332 -5.06067,-2.92179 -1.04412,-1.80846 -1.04412,-4.03355 0,-5.84202 1.04413,-1.80847 2.97243,-2.92178 5.06067,-2.92178 a 0.49999699,0.49999699 0 0 0 0.22996,-0.0558 0.49999899,0.49999899 0 0 0 0.23926,0.062 c 0.93574,0 1.80331,-0.50014 2.27118,-1.31052 0.46788,-0.81037 0.46788,-1.81066 0,-2.62102 -0.46787,-0.81038 -1.33544,-1.31259 -2.27118,-1.31259 z m -0.46922,2.13062 c -3.19882,0 -6.15826,1.70649 -7.75767,4.47673 -1.5994,2.77026 -1.5994,6.18631 0,8.95656 1.59941,2.77026 4.55885,4.47673 7.75767,4.47673 a 0.499998,0.499998 0 0 0 0.50023,-0.49971 0.499998,0.499998 0 0 0 -0.50023,-0.50023 c -2.84316,0 -5.46897,-1.51425 -6.89053,-3.9765 -1.42158,-2.46224 -1.42158,-5.49489 0,-7.95714 1.42156,-2.46223 4.04737,-3.9765 6.89053,-3.9765 a 0.499998,0.499998 0 0 0 0.50023,-0.50023 0.499998,0.499998 0 0 0 -0.50023,-0.49971 z" /><path
         id="path12124"
         style="color:#000000;fill:#cdaaaa;fill-opacity:1;stroke-linecap:round;stroke-linejoin:round;-inkscape-stroke:none"
         d="m 501.2889,429.52018 a 0.49999601,0.49999601 0 0 0 -0.50022,0.50023 0.49999601,0.49999601 0 0 0 0.50022,0.50023 c 3.60211,0 6.92916,1.91944 8.73022,5.03896 1.80106,3.11952 1.80105,6.96049 0,10.08001 -1.80106,3.11953 -5.12811,5.04103 -8.73022,5.04103 a 0.49999601,0.49999601 0 0 0 -0.22789,0.062 0.49999899,0.49999899 0 0 0 -0.24133,-0.0625 c -0.58008,0 -1.114,-0.30792 -1.40405,-0.81029 -0.29004,-0.50237 -0.29004,-1.11873 0,-1.62109 0.29005,-0.50237 0.82397,-0.81235 1.40405,-0.81235 a 0.49999899,0.49999899 0 0 0 0.23099,-0.0568 0.49999699,0.49999699 0 0 0 0.23823,0.0625 c 2.4439,0 4.70586,-1.30501 5.92781,-3.42149 1.22195,-2.11648 1.22195,-4.72549 0,-6.84196 -1.22195,-2.11648 -3.48391,-3.42202 -5.92781,-3.42202 a 0.49999699,0.49999699 0 0 0 -0.50022,0.50023 0.49999699,0.49999699 0 0 0 0.50022,0.49971 c 2.08824,0 4.01603,1.11384 5.06016,2.9223 1.04412,1.80847 1.04412,4.03304 0,5.84151 -1.04413,1.80847 -2.97192,2.92178 -5.06016,2.92178 a 0.49999699,0.49999699 0 0 0 -0.22789,0.0563 0.49999899,0.49999899 0 0 0 -0.24133,-0.062 c -0.93574,0 -1.80383,0.50168 -2.2717,1.31206 -0.46787,0.81037 -0.46787,1.81117 0,2.62155 0.46787,0.81038 1.33596,1.31051 2.2717,1.31051 a 0.49999899,0.49999899 0 0 0 0.24081,-0.062 0.49999601,0.49999601 0 0 0 0.22841,0.062 c 3.95777,0 7.61639,-2.11372 9.59528,-5.54126 1.97889,-3.42753 1.97889,-7.65242 0,-11.07994 -1.97889,-3.42754 -5.63751,-5.5392 -9.59528,-5.5392 z m 0,2.12907 a 0.499998,0.499998 0 0 0 -0.50022,0.50023 0.499998,0.499998 0 0 0 0.50022,0.49971 c 2.84316,0 5.46897,1.51426 6.89054,3.9765 1.42158,2.46225 1.42158,5.4949 0,7.95714 -1.42157,2.46224 -4.04738,3.9765 -6.89054,3.9765 a 0.499998,0.499998 0 0 0 -0.50022,0.50023 0.499998,0.499998 0 0 0 0.50022,0.49971 c 3.19882,0 6.15826,-1.70596 7.75767,-4.47622 1.59941,-2.77024 1.59941,-6.18682 0,-8.95707 -1.59941,-2.77025 -4.55885,-4.47673 -7.75767,-4.47673 z m 0,4.22248 a 0.49999851,0.49999851 0 0 0 -0.50022,0.50023 0.49999851,0.49999851 0 0 0 0.50022,0.50023 c 1.33237,0 2.56205,0.71113 3.22823,1.865 0.66619,1.15387 0.66619,2.57252 0,3.72639 -0.66618,1.15386 -1.89586,1.86345 -3.22823,1.86345 a 0.49999851,0.49999851 0 0 0 -0.23616,0.062 0.49999851,0.49999851 0 0 0 -0.23306,-0.0584 c -1.68803,0 -3.24979,0.90336 -4.09381,2.36524 -0.84402,1.46187 -0.84402,3.26496 0,4.72684 0.84402,1.46188 2.40578,2.36317 4.09381,2.36316 a 0.49999851,0.49999851 0 0 0 0.50023,-0.50023 0.49999851,0.49999851 0 0 0 -0.50023,-0.49971 c -1.33237,0 -2.56256,-0.70958 -3.22874,-1.86345 -0.66619,-1.15387 -0.66619,-2.57252 0,-3.72639 0.66618,-1.15387 1.89637,-1.86552 3.22874,-1.86552 a 0.49999851,0.49999851 0 0 0 0.24081,-0.0615 0.49999851,0.49999851 0 0 0 0.22841,0.0579 c 1.68803,10e-6 3.24979,-0.90129 4.09381,-2.36317 0.84402,-1.46188 0.84402,-3.26496 0,-4.72684 -0.84402,-1.46188 -2.40578,-2.36523 -4.09381,-2.36523 z m 0,2.10581 a 0.49999899,0.49999899 0 0 0 -0.23668,0.0599 0.49999601,0.49999601 0 0 0 -0.23254,-0.0584 c -3.95777,0 -7.61691,2.11166 -9.5958,5.5392 -1.97888,3.42753 -1.97888,7.65242 0,11.07995 1.97889,3.42753 5.63803,5.54126 9.5958,5.54126 a 0.49999601,0.49999601 0 0 0 0.50023,-0.50023 0.49999601,0.49999601 0 0 0 -0.50023,-0.49971 c -3.60211,0 -6.92916,-1.92151 -8.73022,-5.04104 -1.80104,-3.11951 -1.80105,-6.96048 0,-10.08 1.80106,-3.11953 5.12811,-5.03949 8.73022,-5.03949 a 0.49999601,0.49999601 0 0 0 0.23616,-0.0594 0.49999899,0.49999899 0 0 0 0.23306,0.0579 c 0.58008,0 1.114,0.30999 1.40405,0.81236 0.29004,0.50236 0.29004,1.11872 0,1.62109 -0.29005,0.50237 -0.82397,0.8108 -1.40405,0.8108 a 0.49999899,0.49999899 0 0 0 -0.22892,0.0553 0.49999699,0.49999699 0 0 0 -0.2403,-0.0615 c -2.4439,0 -4.70585,1.30553 -5.9278,3.42201 -1.22195,2.11648 -1.22195,4.72497 0,6.84144 1.22195,2.11649 3.4839,3.42202 5.9278,3.42202 a 0.49999699,0.49999699 0 0 0 0.50023,-0.49971 0.49999699,0.49999699 0 0 0 -0.50023,-0.50023 c -2.08824,0 -4.01654,-1.11332 -5.06067,-2.92179 -1.04412,-1.80846 -1.04412,-4.03355 0,-5.84202 1.04413,-1.80847 2.97243,-2.92178 5.06067,-2.92178 a 0.49999699,0.49999699 0 0 0 0.22996,-0.0558 0.49999899,0.49999899 0 0 0 0.23926,0.062 c 0.93574,0 1.80331,-0.50014 2.27118,-1.31052 0.46788,-0.81037 0.46788,-1.81066 0,-2.62102 -0.46787,-0.81038 -1.33544,-1.31259 -2.27118,-1.31259 z m -0.46922,2.13062 c -3.19882,0 -6.15826,1.70649 -7.75767,4.47673 -1.5994,2.77026 -1.5994,6.18631 0,8.95656 1.59941,2.77026 4.55885,4.47673 7.75767,4.47673 a 0.499998,0.499998 0 0 0 0.50023,-0.49971 0.499998,0.499998 0 0 0 -0.50023,-0.50023 c -2.84316,0 -5.46897,-1.51425 -6.89053,-3.9765 -1.42158,-2.46224 -1.42158,-5.49489 0,-7.95714 1.42156,-2.46223 4.04737,-3.9765 6.89053,-3.9765 a 0.499998,0.499998 0 0 0 0.50023,-0.50023 0.499998,0.499998 0 0 0 -0.50023,-0.49971 z" /><path
         id="path12126"
         style="color:#000000;fill:#cdaaaa;fill-opacity:1;stroke-linecap:round;stroke-linejoin:round;-inkscape-stroke:none"
         d="m 505.04177,243.41176 a 0.49999601,0.49999601 0 0 0 -0.50022,0.50023 0.49999601,0.49999601 0 0 0 0.50022,0.50023 c 3.60211,0 6.92916,1.91944 8.73022,5.03896 1.80106,3.11952 1.80105,6.96049 0,10.08001 -1.80106,3.11953 -5.12811,5.04103 -8.73022,5.04103 a 0.49999601,0.49999601 0 0 0 -0.22789,0.062 0.49999899,0.49999899 0 0 0 -0.24133,-0.0625 c -0.58008,0 -1.114,-0.30792 -1.40405,-0.81029 -0.29004,-0.50237 -0.29004,-1.11873 0,-1.62109 0.29005,-0.50237 0.82397,-0.81235 1.40405,-0.81235 a 0.49999899,0.49999899 0 0 0 0.23099,-0.0568 0.49999699,0.49999699 0 0 0 0.23823,0.0625 c 2.4439,0 4.70586,-1.30501 5.92781,-3.42149 1.22195,-2.11648 1.22195,-4.72549 0,-6.84196 -1.22195,-2.11648 -3.48391,-3.42202 -5.92781,-3.42202 a 0.49999699,0.49999699 0 0 0 -0.50022,0.50023 0.49999699,0.49999699 0 0 0 0.50022,0.49971 c 2.08824,0 4.01603,1.11384 5.06016,2.9223 1.04412,1.80847 1.04412,4.03304 0,5.84151 -1.04413,1.80847 -2.97192,2.92178 -5.06016,2.92178 a 0.49999699,0.49999699 0 0 0 -0.22789,0.0563 0.49999899,0.49999899 0 0 0 -0.24133,-0.062 c -0.93574,0 -1.80383,0.50168 -2.2717,1.31206 -0.46787,0.81037 -0.46787,1.81117 0,2.62155 0.46787,0.81038 1.33596,1.31051 2.2717,1.31051 a 0.49999899,0.49999899 0 0 0 0.24081,-0.062 0.49999601,0.49999601 0 0 0 0.22841,0.062 c 3.95777,0 7.61639,-2.11372 9.59528,-5.54126 1.97889,-3.42753 1.97889,-7.65242 0,-11.07994 -1.97889,-3.42754 -5.63751,-5.5392 -9.59528,-5.5392 z m 0,2.12907 a 0.499998,0.499998 0 0 0 -0.50022,0.50023 0.499998,0.499998 0 0 0 0.50022,0.49971 c 2.84316,0 5.46897,1.51426 6.89054,3.9765 1.42158,2.46225 1.42158,5.4949 0,7.95714 -1.42157,2.46224 -4.04738,3.9765 -6.89054,3.9765 a 0.499998,0.499998 0 0 0 -0.50022,0.50023 0.499998,0.499998 0 0 0 0.50022,0.49971 c 3.19882,0 6.15826,-1.70596 7.75767,-4.47622 1.59941,-2.77024 1.59941,-6.18682 0,-8.95707 -1.59941,-2.77025 -4.55885,-4.47673 -7.75767,-4.47673 z m 0,4.22248 a 0.49999851,0.49999851 0 0 0 -0.50022,0.50023 0.49999851,0.49999851 0 0 0 0.50022,0.50023 c 1.33237,0 2.56205,0.71113 3.22823,1.865 0.66619,1.15387 0.66619,2.57252 0,3.72639 -0.66618,1.15386 -1.89586,1.86345 -3.22823,1.86345 a 0.49999851,0.49999851 0 0 0 -0.23616,0.062 0.49999851,0.49999851 0 0 0 -0.23306,-0.0584 c -1.68803,0 -3.24979,0.90336 -4.09381,2.36524 -0.84402,1.46187 -0.84402,3.26496 0,4.72684 0.84402,1.46188 2.40578,2.36317 4.09381,2.36316 a 0.49999851,0.49999851 0 0 0 0.50023,-0.50023 0.49999851,0.49999851 0 0 0 -0.50023,-0.49971 c -1.33237,0 -2.56256,-0.70958 -3.22874,-1.86345 -0.66619,-1.15387 -0.66619,-2.57252 0,-3.72639 0.66618,-1.15387 1.89637,-1.86552 3.22874,-1.86552 a 0.49999851,0.49999851 0 0 0 0.24081,-0.0615 0.49999851,0.49999851 0 0 0 0.22841,0.0579 c 1.68803,1e-5 3.24979,-0.90129 4.09381,-2.36317 0.84402,-1.46188 0.84402,-3.26496 0,-4.72684 -0.84402,-1.46188 -2.40578,-2.36523 -4.09381,-2.36523 z m 0,2.10581 a 0.49999899,0.49999899 0 0 0 -0.23668,0.0599 0.49999601,0.49999601 0 0 0 -0.23254,-0.0584 c -3.95777,0 -7.61691,2.11166 -9.5958,5.5392 -1.97888,3.42753 -1.97888,7.65242 0,11.07995 1.97889,3.42753 5.63803,5.54126 9.5958,5.54126 a 0.49999601,0.49999601 0 0 0 0.50023,-0.50023 0.49999601,0.49999601 0 0 0 -0.50023,-0.49971 c -3.60211,0 -6.92916,-1.92151 -8.73022,-5.04104 -1.80104,-3.11951 -1.80105,-6.96048 0,-10.08 1.80106,-3.11953 5.12811,-5.03949 8.73022,-5.03949 a 0.49999601,0.49999601 0 0 0 0.23616,-0.0594 0.49999899,0.49999899 0 0 0 0.23306,0.0579 c 0.58008,0 1.114,0.30999 1.40405,0.81236 0.29004,0.50236 0.29004,1.11872 0,1.62109 -0.29005,0.50237 -0.82397,0.8108 -1.40405,0.8108 a 0.49999899,0.49999899 0 0 0 -0.22892,0.0553 0.49999699,0.49999699 0 0 0 -0.2403,-0.0615 c -2.4439,0 -4.70585,1.30553 -5.9278,3.42201 -1.22195,2.11648 -1.22195,4.72497 0,6.84144 1.22195,2.11649 3.4839,3.42202 5.9278,3.42202 a 0.49999699,0.49999699 0 0 0 0.50023,-0.49971 0.49999699,0.49999699 0 0 0 -0.50023,-0.50023 c -2.08824,0 -4.01654,-1.11332 -5.06067,-2.92179 -1.04412,-1.80846 -1.04412,-4.03355 0,-5.84202 1.04413,-1.80847 2.97243,-2.92178 5.06067,-2.92178 a 0.49999699,0.49999699 0 0 0 0.22996,-0.0558 0.49999899,0.49999899 0 0 0 0.23926,0.062 c 0.93574,0 1.80331,-0.50014 2.27118,-1.31052 0.46788,-0.81037 0.46788,-1.81066 0,-2.62102 -0.46787,-0.81038 -1.33544,-1.31259 -2.27118,-1.31259 z m -0.46922,2.13062 c -3.19882,0 -6.15826,1.70649 -7.75767,4.47673 -1.5994,2.77026 -1.5994,6.18631 0,8.95656 1.59941,2.77026 4.55885,4.47673 7.75767,4.47673 a 0.499998,0.499998 0 0 0 0.50023,-0.49971 0.499998,0.499998 0 0 0 -0.50023,-0.50023 c -2.84316,0 -5.46897,-1.51425 -6.89053,-3.9765 -1.42158,-2.46224 -1.42158,-5.49489 0,-7.95714 1.42156,-2.46223 4.04737,-3.9765 6.89053,-3.9765 a 0.499998,0.499998 0 0 0 0.50023,-0.50023 0.499998,0.499998 0 0 0 -0.50023,-0.49971 z" /></g></g></svg>
